<svg width="28" height="29" viewBox="0 0 28 29" fill="none" xmlns="http://www.w3.org/2000/svg">
<path fill-rule="evenodd" clip-rule="evenodd" d="M14 0.604004C6.26818 0.604004 0 6.87219 0 14.604C0 22.3358 6.26818 28.604 14 28.604C21.7318 28.604 28 22.3358 28 14.604C28 6.87219 21.7318 0.604004 14 0.604004ZM9.80891 17.4129C9.56887 17.6447 9.24738 17.773 8.91367 17.7701C8.57997 17.7672 8.26075 17.6334 8.02478 17.3974C7.7888 17.1614 7.65495 16.8422 7.65205 16.5085C7.64915 16.1748 7.77744 15.8533 8.00927 15.6133L13.1002 10.5224C13.3389 10.2838 13.6625 10.1497 14 10.1497C14.3375 10.1497 14.6611 10.2838 14.8998 10.5224L19.9907 15.6133C20.2226 15.8533 20.3508 16.1748 20.3479 16.5085C20.345 16.8422 20.2112 17.1614 19.9752 17.3974C19.7392 17.6334 19.42 17.7672 19.0863 17.7701C18.7526 17.773 18.4311 17.6447 18.1911 17.4129L14 13.2218L9.80891 17.4129Z" fill="black"/>
</svg>
