<svg width="365" height="280" fill="none" xmlns="http://www.w3.org/2000/svg"><path stroke="#000" stroke-width="5" d="M2.5 92.5h90v90h-90zM92.5 92.5h90v90h-90z"/><path d="M24.76 171v-67.2h22.272c4.64 0 8.976.88 13.008 2.64 4.064 1.728 7.632 4.144 10.704 7.248 3.104 3.072 5.52 6.64 7.248 10.704 1.76 4.032 2.64 8.368 2.64 13.008 0 4.64-.88 8.992-2.64 13.056a33.874 33.874 0 0 1-7.248 10.704c-3.072 3.072-6.64 5.488-10.704 7.248-4.032 1.728-8.368 2.592-13.008 2.592H24.76Zm11.712-11.712h10.56c2.976 0 5.776-.56 8.4-1.68a22.866 22.866 0 0 0 7.008-4.704 22.609 22.609 0 0 0 4.752-6.96c1.152-2.656 1.728-5.504 1.728-8.544 0-3.04-.576-5.872-1.728-8.496a22.609 22.609 0 0 0-4.752-6.96 21.927 21.927 0 0 0-6.96-4.704c-2.624-1.152-5.44-1.728-8.448-1.728h-10.56v43.776ZM133.224 102.8h13.488l24.432 67.2h-12.432l-4.32-11.904h-28.8L121.272 170H108.84l24.384-67.2Zm-3.36 43.584h20.208l-10.128-27.696-10.08 27.696Z" fill="#000"/><path stroke="#000" stroke-width="5" d="M182.5 92.5h90v185h-90zM272.5 187.5h90v90h-90z"/><path d="M251.64 194.8v11.712h-20.544V262h-11.712v-55.488H198.84V194.8h52.8ZM313.224 199.8h13.488l24.432 67.2h-12.432l-4.32-11.904h-28.8L301.272 267H288.84l24.384-67.2Zm-3.36 43.584h20.208l-10.128-27.696-10.08 27.696Z" fill="#000"/><path stroke="#000" stroke-width="5" d="M2.5 2.5h180v90H2.5z"/><path d="M22.16 65V39.8h9.666c1.368 0 2.604.342 3.708 1.026a7.52 7.52 0 0 1 2.628 2.754c.648 1.14.972 2.406.972 3.798 0 1.14-.21 2.19-.63 3.15a7.279 7.279 0 0 1-1.728 2.466 7.429 7.429 0 0 1-2.538 1.584L40.268 65H35.21l-5.832-10.026h-2.826V65H22.16Zm4.392-14.418h4.77c.624 0 1.194-.156 1.71-.468a3.57 3.57 0 0 0 1.242-1.26 3.402 3.402 0 0 0 .468-1.764c0-.66-.156-1.254-.468-1.782a3.57 3.57 0 0 0-1.242-1.26 3.242 3.242 0 0 0-1.71-.468h-4.77v7.002ZM51.432 39.8h5.058L65.652 65H60.99l-1.62-4.464h-10.8L46.95 65h-4.662l9.144-25.2Zm-1.26 16.344h7.578l-3.798-10.386-3.78 10.386ZM68.672 65V39.8h8.352c1.74 0 3.366.33 4.878.99a12.439 12.439 0 0 1 4.014 2.718 12.439 12.439 0 0 1 2.718 4.014c.66 1.512.99 3.138.99 4.878 0 1.74-.33 3.372-.99 4.896a12.832 12.832 0 0 1-6.732 6.732c-1.512.648-3.138.972-4.878.972h-8.352Zm4.392-4.392h3.96a7.94 7.94 0 0 0 3.15-.63 8.575 8.575 0 0 0 2.628-1.764 8.478 8.478 0 0 0 1.782-2.61 7.964 7.964 0 0 0 .648-3.204c0-1.14-.216-2.202-.648-3.186a8.478 8.478 0 0 0-1.782-2.61 8.223 8.223 0 0 0-2.61-1.764 7.793 7.793 0 0 0-3.168-.648h-3.96v16.416ZM93.083 65V39.8h4.392V65h-4.392Zm20.932.468a11.62 11.62 0 0 1-4.806-1.008 12.658 12.658 0 0 1-3.96-2.826 13.552 13.552 0 0 1-2.664-4.158c-.636-1.584-.954-3.276-.954-5.076 0-1.812.318-3.504.954-5.076a13.272 13.272 0 0 1 2.664-4.158c1.14-1.2 2.46-2.136 3.96-2.808a11.447 11.447 0 0 1 4.806-1.026c2.04 0 3.918.474 5.634 1.422a12.616 12.616 0 0 1 4.266 3.762l-3.924 2.106a7.886 7.886 0 0 0-2.646-2.106 7.278 7.278 0 0 0-3.33-.792 7.241 7.241 0 0 0-3.114.684 7.822 7.822 0 0 0-2.556 1.872 8.61 8.61 0 0 0-1.71 2.772 9.116 9.116 0 0 0-.612 3.348c0 1.2.204 2.322.612 3.366a9.152 9.152 0 0 0 1.728 2.772 8.247 8.247 0 0 0 2.538 1.872c.972.444 2.01.666 3.114.666 1.2 0 2.316-.264 3.348-.792a8.142 8.142 0 0 0 2.628-2.124l3.924 2.124a12.877 12.877 0 0 1-4.266 3.762c-1.716.948-3.594 1.422-5.634 1.422ZM135.174 39.8h5.058l9.162 25.2h-4.662l-1.62-4.464h-10.8L130.692 65h-4.662l9.144-25.2Zm-1.26 16.344h7.578l-3.798-10.386-3.78 10.386Zm18.5 8.856V39.8h4.392v20.808H167.3V65h-14.886Z" fill="#000"/></svg>